<?xml version="1.0" encoding="utf-8"?>
<!-- Generator: Adobe Illustrator 26.0.1, SVG Export Plug-In . SVG Version: 6.00 Build 0)  -->
<svg version="1.1" id="Lager_1" xmlns="http://www.w3.org/2000/svg" xmlns:xlink="http://www.w3.org/1999/xlink" x="0px" y="0px"
	 viewBox="0 0 700.9 284.5" style="enable-background:new 0 0 700.9 284.5;" xml:space="preserve">
<style type="text/css">
	.st0{fill: currentColor;}
</style>
<g id="_x38_">
	<g>
		<path class="st0" d="M531.5,149.9c2.4,12.6,13.8,22.9,28.3,22.9c10.2,0,18.4-3.2,22.7-9.6h26.3c-6.8,18.2-26.3,30.5-48.9,30.5
			c-29.1,0-51.5-22.9-51.5-51.3S530.7,91,559.2,91s50.9,22.9,50.9,51.3c0,2.6-0.2,5.2-0.6,7.6L531.5,149.9L531.5,149.9z
			 M532.5,130.3h53.3c-3.2-10.4-14-18.8-26.7-18.8C546.5,111.4,535.7,119.8,532.5,130.3z"/>
	</g>
	<g>
		<polygon class="st0" points="491.8,189.7 398.9,189.6 398.9,94.7 491.9,94.8 491.8,115.8 419.9,115.8 419.9,168.7 491.9,168.7
			"/>
	</g>
	<g>
		<path class="st0" d="M307.8,189.7h-94.2v-95h94.2V189.7z M234.6,168.7h52.2v-53h-52.2L234.6,168.7L234.6,168.7z"/>
	</g>
	<g>
		<polygon class="st0" points="351.5,189.6 330.5,189.6 330.5,94.8 378.5,94.8 378.5,115.8 351.5,115.8 		"/>
	</g>
	<g>
		<polygon class="st0" points="95.3,189.7 95.2,94.8 191.2,94.7 191.3,189.7 170.3,189.7 170.2,115.7 116.2,115.8 116.3,189.7 		"/>
	</g>
</g>
</svg>
