<?xml version="1.0" encoding="UTF-8"?>
<svg fill="none" viewBox="0 0 61 61" xmlns="http://www.w3.org/2000/svg">
<style>
rect, g {
  fill: #10141D;
}
@media (prefers-color-scheme: dark) {
  rect, g { fill:#fff }
}
</style>
<mask id="a" x="0" y="0" width="61" height="61" style="mask-type:alpha" maskUnits="userSpaceOnUse">
<rect x=".3457" y=".32812" width="60" height="60" />
</mask>
<g mask="url(#a)">
<path d="m59.842 12.112c10.596 0 18.329 7.8786 18.329 18.332 0 10.454-7.7321 18.329-18.329 18.329-10.596 0-18.328-7.8786-18.328-18.329s7.7321-18.332 18.328-18.332zm0 29.071c6.1572 0 10.311-4.5107 10.311-10.739 0-6.2285-4.1536-10.743-10.311-10.743-6.1571 0-10.307 4.5107-10.307 10.743 0 6.2322 4.15 10.754 10.307 10.754v-0.0143z"/>
<path d="m0.73478 47.386-0.032143-33.914 34.3-0.0357 0.0322 33.943-7.5 0.0071-0.025-26.443-19.3 0.0214 0.025 26.414-7.5 0.0071z"/>
</g>
</svg>
